# xmcd CD database file
#
# Track frame offsets:
#	150
#	17040
#	32080
#
# Disc length: 651 seconds
#
# Revision: 1
# Processed by: cddbd v1.5PL3 Copyright (c) Steve Scherf et al.
# Submitted via: CDex 1.51
#
DISCID=1a028903
DTITLE=平家みちよ - だけど 愛しすぎて
DYEAR=1998
DGENRE=JPop
TTITLE0=だけど 愛しすぎて (Mix for Single)
TTITLE1=深呼吸しよう！！
TTITLE2=だけど 愛しすぎて (ORIGINAL KARAOKE)
EXTD=YEAR: 1998
EXTT0=
EXTT1=
EXTT2=
PLAYORDER=
